<?xml version="1.0" standalone="no"?>
<!DOCTYPE svg PUBLIC "-//W3C//DTD SVG 20010904//EN"
        "http://www.w3.org/TR/2001/REC-SVG-20010904/DTD/svg10.dtd">
<svg version="1.0" xmlns="http://www.w3.org/2000/svg"
     width="96.000000pt" height="96.000000pt" viewBox="0 0 96.000000 96.000000"
     preserveAspectRatio="xMidYMid meet">
    <metadata>
        Created by potrace 1.15, written by Peter Selinger 2001-2017
    </metadata>
    <g transform="translate(0.000000,96.000000) scale(0.100000,-0.100000)"
       fill="#000000" stroke="none">
        <path d="M293 788 l-173 -101 0 -206 0 -207 180 -103 180 -103 153 88 c83 48
164 95 179 103 l28 16 0 206 0 206 -176 102 c-97 55 -181 101 -187 100 -7 0
-90 -46 -184 -101z m315 -128 c61 -38 80 -130 39 -191 -30 -44 -62 -59 -147
-66 l-70 -6 0 -63 0 -64 -55 0 -55 0 0 205 0 205 128 0 c110 0 131 -3 160 -20z"/>
    </g>
</svg>
